<svg width="85" height="49" viewBox="0 0 85 49" fill="none" xmlns="http://www.w3.org/2000/svg">
<path d="M67.8068 1.16667H56.6023L65.9716 17.7917L61.9148 24.9861H60.6591C58.4954 30.1972 54.2518 33.5741 52.3523 34.6111H67.8068L70.8011 27.3194L73.892 34.6111H84.9034L67.8068 1.16667Z" fill="white"/>
<path d="M84.9034 1.16667C85.1352 1.01111 77.9166 1.10186 74.2784 1.16667L71.6705 7.48611L76.5966 16.5278C79.2689 11.4722 84.6716 1.32223 84.9034 1.16667Z" fill="white"/>
<path fill-rule="evenodd" clip-rule="evenodd" d="M0 0.583328H11.3977L13.9091 10.2083L7.05114 32.375L0 0.583328ZM17.3864 0.583328H27.2386L17.3864 34.6111H7.82386L17.3864 0.583328Z" fill="white"/>
<path fill-rule="evenodd" clip-rule="evenodd" d="M29.267 0L25.2102 11.1806H26.4197L26.4101 11.2064C26.2283 11.641 26.0629 12.0843 25.915 12.5354L25.8402 12.7361H25.8504C25.3091 14.4536 25.017 16.2827 25.017 18.1806C25.017 28.1139 33.0175 36.1667 42.8864 36.1667C52.7552 36.1667 60.7557 28.1139 60.7557 18.1806C60.7557 8.46868 53.1082 0.554618 43.544 0.206395L43.5625 0.194444L29.267 0ZM26.4209 11.1806L26.4101 11.2064L25.915 12.5354C25.8929 12.6022 25.8715 12.669 25.8504 12.7361H37.5325L37.6326 12.6619C36.0595 14.0171 35.0625 16.0303 35.0625 18.2778C35.0625 22.3586 38.3491 25.6667 42.4034 25.6667C46.4577 25.6667 49.7443 22.3586 49.7443 18.2778C49.7443 14.197 46.4577 10.8889 42.4034 10.8889C41.5795 10.8889 40.7872 11.0255 40.0477 11.2775L26.4209 11.1806ZM39.685 11.4121C39.8043 11.3641 39.9255 11.3192 40.0477 11.2775L40.0852 11.2778L39.685 11.4121ZM38.6 11.9567L38.733 11.8611L39.5057 11.4722L39.685 11.4121C39.3069 11.5639 38.9441 11.7464 38.6 11.9567ZM38.6 11.9567C38.2583 12.1655 37.9347 12.4016 37.6326 12.6619L38.0568 12.3472L38.6 11.9567Z" fill="white"/>
<path d="M11.3636 46.481L10.077 46.4722L10.0857 41.6422H9.04251V40.3735H12.4068V41.6422H11.3723L11.3636 46.481ZM20.0546 46.481L17.2381 46.4722L17.2555 40.3735H20.1241V41.6685H18.516V42.7885H19.8894V44.0572H18.516V45.1772H20.0546V46.481ZM26.646 46.5772C26.0954 46.5772 25.6665 46.3876 25.3594 46.0085C25.058 45.6293 24.9073 44.9818 24.9073 44.066V42.8585C24.9073 42.6076 24.916 42.3831 24.9334 42.1847C24.9508 41.9864 24.9971 41.7618 25.0725 41.511C25.1478 41.2543 25.2463 41.0414 25.3681 40.8722C25.4956 40.7031 25.6752 40.5601 25.907 40.4435C26.1446 40.3268 26.4257 40.2685 26.7503 40.2685C27.2139 40.2685 27.5964 40.4347 27.8978 40.7672C28.2049 41.0939 28.3585 41.5051 28.3585 42.001V42.456H27.1675V42.2722C27.1675 42.0214 27.1328 41.8435 27.0632 41.7385C26.9937 41.6335 26.8807 41.581 26.7242 41.581C26.5156 41.581 26.3765 41.6772 26.3069 41.8697C26.2432 42.0622 26.2113 42.3306 26.2113 42.6747V44.0835C26.2113 44.5093 26.2432 44.8126 26.3069 44.9935C26.3765 45.1743 26.5069 45.2647 26.6981 45.2647C26.872 45.2647 26.9966 45.2093 27.0719 45.0985C27.1473 44.9876 27.1849 44.8097 27.1849 44.5647V44.1185H28.3759V44.696C28.3759 45.3318 28.2049 45.8043 27.863 46.1135C27.5211 46.4226 27.1154 46.5772 26.646 46.5772ZM35.5665 40.3735H36.7053L36.6966 46.4722H35.6882L34.3582 43.576V46.4722H33.228V40.3735H34.1234L35.5665 43.6372V40.3735ZM43.3226 46.5772C43.0096 46.5772 42.7401 46.5189 42.5141 46.4022C42.2939 46.2856 42.1229 46.1456 42.0012 45.9822C41.8853 45.8189 41.7926 45.6118 41.723 45.361C41.6593 45.1101 41.6187 44.8885 41.6013 44.696C41.5897 44.5035 41.5839 44.2789 41.5839 44.0222V42.771C41.5839 42.5143 41.5897 42.2926 41.6013 42.106C41.6187 41.9135 41.6622 41.6947 41.7317 41.4497C41.8013 41.1989 41.894 40.9976 42.0099 40.846C42.1316 40.6885 42.3084 40.5543 42.5402 40.4435C42.772 40.3268 43.0502 40.2685 43.3747 40.2685C43.6413 40.2685 43.8789 40.3064 44.0876 40.3822C44.2962 40.4522 44.4614 40.5572 44.5831 40.6972C44.7106 40.8314 44.8149 40.9743 44.896 41.126C44.9772 41.2718 45.0351 41.4526 45.0699 41.6685C45.1047 41.8785 45.1278 42.0622 45.1394 42.2197C45.151 42.3772 45.1568 42.561 45.1568 42.771V44.0222C45.1568 44.2789 45.1481 44.5035 45.1307 44.696C45.1192 44.8826 45.0757 45.1043 45.0003 45.361C44.9308 45.6118 44.8352 45.8189 44.7135 45.9822C44.5918 46.1456 44.4121 46.2856 44.1745 46.4022C43.9369 46.5189 43.6529 46.5772 43.3226 46.5772ZM43.3573 45.2647C43.5486 45.2647 43.679 45.1685 43.7485 44.976C43.8181 44.7835 43.8529 44.4976 43.8529 44.1185V42.8935C43.8529 42.6601 43.8499 42.4793 43.8442 42.351C43.8384 42.2226 43.821 42.0885 43.792 41.9485C43.763 41.8026 43.7138 41.6976 43.6442 41.6335C43.5805 41.5693 43.4935 41.5372 43.3834 41.5372C43.2733 41.5372 43.1835 41.5693 43.1139 41.6335C43.0444 41.6976 42.9922 41.7997 42.9575 41.9397C42.9285 42.0797 42.9082 42.2197 42.8966 42.3597C42.8908 42.4939 42.8879 42.6718 42.8879 42.8935V44.1185C42.8879 44.4976 42.9198 44.7835 42.9835 44.976C43.0531 45.1685 43.1777 45.2647 43.3573 45.2647ZM50.0331 46.4722V40.3735H51.3371V45.1597H52.9193V46.4722H50.0331ZM59.1851 46.5772C58.8722 46.5772 58.6027 46.5189 58.3766 46.4022C58.1564 46.2856 57.9855 46.1456 57.8637 45.9822C57.7478 45.8189 57.6551 45.6118 57.5856 45.361C57.5218 45.1101 57.4812 44.8885 57.4639 44.696C57.4523 44.5035 57.4465 44.2789 57.4465 44.0222V42.771C57.4465 42.5143 57.4523 42.2926 57.4639 42.106C57.4812 41.9135 57.5247 41.6947 57.5943 41.4497C57.6638 41.1989 57.7565 40.9976 57.8724 40.846C57.9941 40.6885 58.1709 40.5543 58.4027 40.4435C58.6345 40.3268 58.9127 40.2685 59.2373 40.2685C59.5039 40.2685 59.7415 40.3064 59.9501 40.3822C60.1587 40.4522 60.3239 40.5572 60.4456 40.6972C60.5731 40.8314 60.6774 40.9743 60.7586 41.126C60.8397 41.2718 60.8977 41.4526 60.9324 41.6685C60.9672 41.8785 60.9904 42.0622 61.002 42.2197C61.0136 42.3772 61.0194 42.561 61.0194 42.771V44.0222C61.0194 44.2789 61.0107 44.5035 60.9933 44.696C60.9817 44.8826 60.9382 45.1043 60.8629 45.361C60.7934 45.6118 60.6977 45.8189 60.576 45.9822C60.4543 46.1456 60.2747 46.2856 60.037 46.4022C59.7994 46.5189 59.5155 46.5772 59.1851 46.5772ZM59.2199 45.2647C59.4111 45.2647 59.5415 45.1685 59.6111 44.976C59.6806 44.7835 59.7154 44.4976 59.7154 44.1185V42.8935C59.7154 42.6601 59.7125 42.4793 59.7067 42.351C59.7009 42.2226 59.6835 42.0885 59.6545 41.9485C59.6256 41.8026 59.5763 41.6976 59.5068 41.6335C59.443 41.5693 59.3561 41.5372 59.246 41.5372C59.1359 41.5372 59.046 41.5693 58.9765 41.6335C58.9069 41.6976 58.8548 41.7997 58.82 41.9397C58.791 42.0797 58.7707 42.2197 58.7591 42.3597C58.7534 42.4939 58.7505 42.6718 58.7505 42.8935V44.1185C58.7505 44.4976 58.7823 44.7835 58.8461 44.976C58.9156 45.1685 59.0402 45.2647 59.2199 45.2647ZM67.5823 46.586C66.3363 46.586 65.7133 45.7226 65.7133 43.996V42.736C65.7133 42.4385 65.7394 42.1585 65.7915 41.896C65.8437 41.6335 65.9335 41.371 66.061 41.1085C66.1885 40.846 66.3827 40.6389 66.6435 40.4872C66.9101 40.3297 67.2288 40.251 67.5997 40.251C68.075 40.251 68.4632 40.4289 68.7646 40.7847C69.0718 41.1347 69.2253 41.5635 69.2253 42.071V42.4035H68.0518V42.2547C68.0518 42.0564 68.0054 41.8931 67.9127 41.7647C67.82 41.6306 67.7098 41.5635 67.5823 41.5635C67.2056 41.5635 67.0173 41.931 67.0173 42.666V43.996C67.0173 44.4276 67.055 44.7485 67.1303 44.9585C67.2114 45.1685 67.3592 45.2735 67.5736 45.2735C67.904 45.2735 68.0692 45.0022 68.0692 44.4597V44.1097L67.478 44.1185V42.9547H69.2427V44.626C69.2427 45.2618 69.0718 45.7489 68.7298 46.0872C68.3879 46.4197 68.0054 46.586 67.5823 46.586ZM74.1973 46.4722V40.3735H75.5012V46.4722H74.1973ZM82.9608 46.4722L82.7608 45.1772H81.6568L81.4134 46.4722H80.2137L81.5264 40.3735H83.0564L84.1952 46.4722H82.9608ZM81.8828 43.9785H82.5696L82.2827 42.1672H82.2305L81.8828 43.9785Z" fill="white"/>
</svg>
